<svg version="1.1" xmlns="http://www.w3.org/2000/svg" xmlns:xlink="http://www.w3.org/1999/xlink" width="48" height="48"><defs><linearGradient x1="10.85032" y1="10.48942" x2="63.53535" y2="63.89624" gradientUnits="userSpaceOnUse" id="color-1"><stop offset="0" stop-color="#000000" stop-opacity="0.27"></stop><stop offset="1" stop-color="#000000" stop-opacity="0"></stop></linearGradient><filter id="dropshadow-base"><feColorMatrix type="matrix" values="0 0 0 0 0  0 0 0 0 0  0 0 0 0 0  0 0 0 .8 0"></feColorMatrix> <feOffset dx="0" dy="1"></feOffset> <feGaussianBlur stdDeviation="1"></feGaussianBlur> <feComposite in="SourceGraphic"></feComposite></filter><filter id="dropshadow-banner" x="-10%" y="-10%" width="120%" height="130%"><feColorMatrix type="matrix" values="0 0 0 0 0  0 0 0 0 0  0 0 0 0 0  0 0 0 .4 0"></feColorMatrix> <feOffset dx="0" dy="1"></feOffset> <feGaussianBlur stdDeviation="0.5"></feGaussianBlur> <feComposite in="SourceGraphic"></feComposite></filter></defs><g fill="none" fill-rule="nonzero" stroke="none" stroke-width="none" stroke-linecap="butt" stroke-linejoin="miter" stroke-miterlimit="10" stroke-dasharray="" stroke-dashoffset="0" font-family="none" font-weight="none" font-size="none" text-anchor="none" style="mix-blend-mode: normal"><path d="M5,45c-1.10457,0 -2,-0.89543 -2,-2v-38c0,-1.10457 0.89543,-2 2,-2h38c1.10457,0 2,0.89543 2,2v38c0,1.10457 -0.89543,2 -2,2z" id="base 1 1" fill="#4a679a" stroke-width="1" filter="url(#dropshadow-base)"></path><path d="M12.12154,36.23936c-0.78607,-0.78607 -1.27122,-1.87306 -1.27122,-3.07673v-0.09826l4.44515,4.44515c0,0 0.00001,0 0.00001,0l-4.44516,-4.44516l1.21264,-0.65427l-1.21264,-1.21264v-9.16263l0.00001,0.00001l1.20809,-0.65882l-1.20809,-1.20809v-5.33054c0,-2.40734 1.94061,-4.34795 4.34795,-4.34795c1.19444,0 2.28395,0.48765 3.07358,1.27728l4.02554,4.02554l8.86794,-4.83608c0.58955,-0.31934 1.25279,-0.46673 1.91605,-0.46673c0.4176,0 0.8352,0.0737 1.25279,0.19652l2.60676,2.60676c0,-0.00001 0,-0.00001 -0.00001,-0.00002l-2.60675,-2.60675c0.63252,0.20358 1.17898,0.547 1.61707,0.9851l9.04876,9.04876v22.2802c0,1.10457 -0.89543,2 -2,2l-22.11782,0z" fill="url(#color-1)" stroke-width="1"></path><path d="M37.13934,33.08894c0.07369,1.08085 -0.24565,2.13713 -0.98259,2.94776c-0.68781,0.81063 -1.6704,1.32649 -2.75125,1.42475c-0.09826,0.02456 -0.22108,0.02456 -0.34391,0.02456c-0.98259,0 -1.91605,-0.34391 -2.65299,-0.98259l-9.80131,-8.72047l7.59049,-4.07774l7.81157,6.90268v0.02456c0.66325,0.66325 1.05628,1.52301 1.12998,2.45647zM19.54622,15.40236l-8.6959,4.76555v-5.33054c0,-2.40734 1.94061,-4.34795 4.34795,-4.34795c2.38278,0 4.34795,1.94061 4.34795,4.34795zM10.85032,33.06437l8.6959,-4.69186v4.79012c0,2.40734 -1.94061,4.34795 -4.34795,4.34795c-2.40734,0 -4.34795,-1.94061 -4.34795,-4.34795zM31.16532,10.95615c0.58955,-0.31934 1.2528,-0.46673 1.91605,-0.46673c0.4176,0 0.8352,0.07369 1.2528,0.19652c2.13713,0.68781 3.29167,2.97233 2.60386,5.10946c-0.29478,0.88433 -0.85976,1.64583 -1.64583,2.16169v0.02456l-0.24565,0.14739l-24.19622,13.06842v-9.16263z" fill="#f38f08" stroke-width="0"></path></g></svg>